<?xml version="1.0" encoding="UTF-8" standalone="no"?>
<svg
   viewBox="0 0 24 24"
   fill="fca311"
   class="w-6 h-6"
   version="1.1"
   id="svg2"
   sodipodi:docname="icon.svg"
   inkscape:version="1.3 (0e150ed6c4, 2023-07-21)"
   xmlns:inkscape="http://www.inkscape.org/namespaces/inkscape"
   xmlns:sodipodi="http://sodipodi.sourceforge.net/DTD/sodipodi-0.dtd"
   xmlns="http://www.w3.org/2000/svg"
   xmlns:svg="http://www.w3.org/2000/svg">
  <defs
     id="defs2" />
  <sodipodi:namedview
     id="namedview2"
     pagecolor="#505050"
     bordercolor="#eeeeee"
     borderopacity="1"
     inkscape:showpageshadow="0"
     inkscape:pageopacity="0"
     inkscape:pagecheckerboard="0"
     inkscape:deskcolor="#d1d1d1"
     inkscape:zoom="11.976621"
     inkscape:cx="10.603992"
     inkscape:cy="18.911845"
     inkscape:window-width="1920"
     inkscape:window-height="1009"
     inkscape:window-x="-8"
     inkscape:window-y="-8"
     inkscape:window-maximized="1"
     inkscape:current-layer="svg2" />
  <path
     d="M4.913 2.658c2.075-.27 4.19-.408 6.337-.408 2.147 0 4.262.139 6.337.408 1.922.25 3.291 1.861 3.405 3.727a4.403 4.403 0 00-1.032-.211 50.89 50.89 0 00-8.42 0c-2.358.196-4.04 2.19-4.04 4.434v4.286a4.47 4.47 0 002.433 3.984L7.28 21.53A.75.75 0 016 21v-4.03a48.527 48.527 0 01-1.087-.128C2.905 16.58 1.5 14.833 1.5 12.862V6.638c0-1.97 1.405-3.718 3.413-3.979z"
     id="path1"
     style="fill:#fca311;fill-opacity:1" />
  <path
     d="M15.75 7.5c-1.376 0-2.739.057-4.086.169C10.124 7.797 9 9.103 9 10.609v4.285c0 1.507 1.128 2.814 2.67 2.94 1.243.102 2.5.157 3.768.165l2.782 2.781a.75.75 0 001.28-.53v-2.39l.33-.026c1.542-.125 2.67-1.433 2.67-2.94v-4.286c0-1.505-1.125-2.811-2.664-2.94A49.392 49.392 0 0015.75 7.5z"
     id="path2"
     style="fill:#fca311;fill-opacity:1" />
</svg>
